<svg width="231" height="48" viewBox="0 0 231 48" fill="none" xmlns="http://www.w3.org/2000/svg">
<g clip-path="url(#clip0_1_1161)">
<path d="M19.2014 37.053V48L38.4006 36.9111V25.9654L19.2014 37.053Z" fill="#FFCA3B"/>
<path d="M27.7958 15.9107L37.269 10.4371L19.2014 0V10.9468L27.7958 15.9107Z" fill="#FFCA3B"/>
<path d="M11.7431 19.1789V30.1293L19.2045 34.4379V23.4924L11.7431 19.1789Z" fill="#FFCA3B"/>
<path d="M38.4006 12.3994L19.2014 23.4929V34.4382L38.4006 23.3494V12.3994Z" fill="#FFCA3B"/>
<path d="M1.15279 10.4307L10.5691 15.9363L19.2118 10.9468V0L1.15279 10.4307Z" fill="#FFCA3B"/>
<path d="M9.47634 31.4376V17.8659L0 12.3941V36.9108L19.2023 47.9997V37.0527L9.47634 31.4376Z" fill="#FFCA3B"/>
</g>
<path d="M60.072 34.336C58.7467 34.336 57.5427 34.0747 56.46 33.552C55.396 33.0293 54.5467 32.2173 53.912 31.116C53.2773 29.996 52.96 28.5773 52.96 26.86V14.4H54.92V26.888C54.92 28.2133 55.1347 29.3053 55.564 30.164C56.012 31.004 56.628 31.62 57.412 32.012C58.196 32.404 59.092 32.6 60.1 32.6C61.1267 32.6 62.0227 32.404 62.788 32.012C63.5533 31.62 64.1507 31.004 64.58 30.164C65.0093 29.3053 65.224 28.2133 65.224 26.888V14.4H67.184V26.86C67.184 28.5773 66.8667 29.996 66.232 31.116C65.5973 32.2173 64.7387 33.0293 63.656 33.552C62.592 34.0747 61.3973 34.336 60.072 34.336ZM72.4603 34V14.4H78.5083C80.0203 14.4 81.2523 14.652 82.2043 15.156C83.1749 15.66 83.8843 16.3413 84.3323 17.2C84.7803 18.04 85.0043 19.0013 85.0043 20.084C85.0043 21.1293 84.7709 22.0907 84.3043 22.968C83.8376 23.8267 83.1189 24.5173 82.1483 25.04C81.1776 25.544 79.9176 25.796 78.3683 25.796H74.4203V34H72.4603ZM82.8763 34L78.4803 25.18H80.7203L85.2283 34H82.8763ZM74.4203 24.2H78.3683C79.9549 24.2 81.1216 23.8173 81.8683 23.052C82.6149 22.2867 82.9883 21.2973 82.9883 20.084C82.9883 18.8333 82.6243 17.8533 81.8963 17.144C81.1683 16.416 79.9829 16.052 78.3403 16.052H74.4203V24.2ZM90.0138 34V14.4H96.5938C97.9752 14.4 99.1138 14.624 100.01 15.072C100.906 15.52 101.569 16.1173 101.998 16.864C102.446 17.6107 102.67 18.4413 102.67 19.356C102.67 20.364 102.446 21.204 101.998 21.876C101.569 22.548 100.999 23.0613 100.29 23.416C99.5992 23.7707 98.8712 23.9947 98.1058 24.088L98.4698 23.808C99.2912 23.8267 100.057 24.0507 100.766 24.48C101.475 24.9093 102.045 25.488 102.474 26.216C102.903 26.9253 103.118 27.7373 103.118 28.652C103.118 29.6227 102.875 30.5187 102.39 31.34C101.923 32.1427 101.223 32.7867 100.29 33.272C99.3565 33.7573 98.1898 34 96.7898 34H90.0138ZM91.9738 32.348H96.6498C98.0685 32.348 99.1605 32.012 99.9258 31.34C100.71 30.668 101.102 29.744 101.102 28.568C101.102 27.392 100.691 26.4587 99.8698 25.768C99.0672 25.0587 97.9658 24.704 96.5658 24.704H91.9738V32.348ZM91.9738 23.08H96.5378C97.8632 23.08 98.8805 22.7627 99.5898 22.128C100.299 21.4933 100.654 20.6347 100.654 19.552C100.654 18.5067 100.309 17.6667 99.6178 17.032C98.9272 16.3787 97.8725 16.052 96.4538 16.052H91.9738V23.08ZM106.171 34L113.395 14.4H115.411L122.635 34H120.563L114.403 16.976L108.215 34H106.171ZM109.475 28.708L110.063 27.084H118.715L119.303 28.708H109.475ZM126.871 34V14.4H128.831L139.667 30.724V14.4H141.627V34H139.667L128.831 17.648V34H126.871Z" fill="white"/>
<path d="M146.796 34V14.4H155.168C156.531 14.4 157.679 14.6147 158.612 15.044C159.546 15.4547 160.255 16.0427 160.74 16.808C161.244 17.5547 161.496 18.4413 161.496 19.468C161.496 20.4573 161.282 21.288 160.852 21.96C160.423 22.632 159.854 23.1453 159.144 23.5C158.454 23.8547 157.688 24.0693 156.848 24.144L157.296 23.808C158.211 23.8453 159.014 24.088 159.704 24.536C160.395 24.984 160.936 25.572 161.328 26.3C161.739 27.0093 161.944 27.7933 161.944 28.652C161.944 29.716 161.692 30.6493 161.188 31.452C160.684 32.2547 159.947 32.88 158.976 33.328C158.006 33.776 156.83 34 155.448 34H146.796ZM150.996 30.584H154.748C155.682 30.584 156.4 30.3787 156.904 29.968C157.427 29.5387 157.688 28.9227 157.688 28.12C157.688 27.3173 157.418 26.692 156.876 26.244C156.354 25.796 155.626 25.572 154.692 25.572H150.996V30.584ZM150.996 22.464H154.44C155.336 22.464 156.018 22.2587 156.484 21.848C156.97 21.4373 157.212 20.8587 157.212 20.112C157.212 19.3653 156.97 18.7867 156.484 18.376C156.018 17.9467 155.327 17.732 154.412 17.732H150.996V22.464ZM173.829 34.336C172.354 34.336 171.01 34.0467 169.797 33.468C168.602 32.8707 167.65 31.984 166.941 30.808C166.25 29.632 165.905 28.148 165.905 26.356V14.4H170.105V26.384C170.105 27.2613 170.245 28.008 170.525 28.624C170.823 29.24 171.253 29.7067 171.813 30.024C172.391 30.3227 173.082 30.472 173.885 30.472C174.706 30.472 175.397 30.3227 175.957 30.024C176.535 29.7067 176.974 29.24 177.273 28.624C177.571 28.008 177.721 27.2613 177.721 26.384V14.4H181.921V26.356C181.921 28.148 181.547 29.632 180.801 30.808C180.073 31.984 179.093 32.8707 177.861 33.468C176.647 34.0467 175.303 34.336 173.829 34.336ZM186.607 34V14.4H190.807V34H186.607ZM195.684 34V14.4H199.884V30.752H208.34V34H195.684ZM212.718 34V14.4H219.522C221.799 14.4 223.675 14.8107 225.15 15.632C226.643 16.4347 227.744 17.5733 228.454 19.048C229.182 20.504 229.546 22.2213 229.546 24.2C229.546 26.16 229.182 27.8773 228.454 29.352C227.744 30.808 226.643 31.9467 225.15 32.768C223.675 33.5893 221.799 34 219.522 34H212.718ZM216.918 30.388H219.27C220.782 30.388 221.976 30.1453 222.854 29.66C223.731 29.156 224.347 28.4467 224.702 27.532C225.075 26.5987 225.262 25.488 225.262 24.2C225.262 22.8933 225.075 21.7827 224.702 20.868C224.347 19.9347 223.731 19.2253 222.854 18.74C221.976 18.236 220.782 17.984 219.27 17.984H216.918V30.388Z" fill="#FFCA3B"/>
<defs>
<clipPath id="clip0_1_1161">
<rect width="39" height="48" fill="white"/>
</clipPath>
</defs>
</svg>
