<svg width="154" height="39" viewBox="0 0 154 39" fill="none" xmlns="http://www.w3.org/2000/svg">
<path d="M144.791 27.5343C143.385 27.5343 142.398 27.1275 141.83 26.3138C141.289 25.4729 141.018 24.4965 141.018 23.3844C141.018 22.5707 141.221 21.6078 141.627 20.4958C142.033 19.3566 142.587 18.2445 143.29 17.1596C144.02 16.0746 144.859 15.1796 145.805 14.4744C146.752 13.742 147.766 13.3759 148.848 13.3759C149.551 13.3759 150.106 13.5793 150.511 13.9861C150.944 14.3659 151.16 14.8541 151.16 15.4508C151.16 16.59 150.795 17.6885 150.065 18.7463C149.335 19.8041 148.388 20.6721 147.225 21.3502C146.062 22.0282 144.818 22.3673 143.493 22.3673C143.331 22.3673 143.169 22.3673 143.006 22.3673C142.844 22.3402 142.682 22.313 142.519 22.2859C142.438 22.6385 142.398 23.0454 142.398 23.5065C142.398 24.2117 142.56 24.8626 142.885 25.4594C143.236 26.0561 143.899 26.3544 144.872 26.3544C145.684 26.3544 146.468 26.151 147.225 25.7442C147.983 25.3373 148.618 24.8762 149.132 24.3609C149.646 23.8455 150.078 23.3844 150.43 22.9776C150.782 22.5707 151.147 22.1096 151.525 21.5943C151.904 21.0518 152.377 20.3466 152.945 19.4786C153.053 19.2888 153.216 19.1938 153.432 19.1938C153.811 19.1938 154 19.3973 154 19.8041C154 19.9397 153.973 20.0482 153.919 20.1296C153.189 21.3773 152.377 22.5707 151.485 23.7099C150.592 24.822 149.592 25.7442 148.483 26.4765C147.401 27.1817 146.171 27.5343 144.791 27.5343ZM143.777 21.106C144.805 21.106 145.765 20.8348 146.657 20.2923C147.577 19.7227 148.321 19.0175 148.889 18.1767C149.484 17.3359 149.781 16.4815 149.781 15.6135C149.781 15.3152 149.7 15.0711 149.538 14.8812C149.402 14.6913 149.159 14.5964 148.807 14.5964C148.104 14.5964 147.428 14.8405 146.779 15.3287C146.13 15.7898 145.535 16.3866 144.994 17.1189C144.48 17.8241 144.034 18.5293 143.655 19.2345C143.304 19.9397 143.047 20.5365 142.885 21.0247C143.02 21.0518 143.155 21.0789 143.29 21.106C143.453 21.106 143.615 21.106 143.777 21.106Z" fill="#121315"/>
<path d="M130.317 28.0632C129.587 28.0632 129.005 27.8733 128.573 27.4936C128.14 27.1139 127.815 26.6528 127.599 26.1103C127.41 25.5407 127.315 25.0118 127.315 24.5236C127.315 23.8726 127.437 23.1538 127.68 22.3673C127.924 21.5535 128.14 20.9975 128.329 20.6992C128.329 20.6178 128.316 20.5364 128.289 20.455C128.289 20.3466 128.289 20.2516 128.289 20.1702C128.289 19.4379 128.397 18.6785 128.613 17.8919C128.857 16.9697 129.289 16.1289 129.911 15.3694C130.533 14.5828 131.304 13.9454 132.224 13.4572C133.17 12.969 134.198 12.7249 135.307 12.7249C136.605 12.7249 137.606 13.0775 138.309 13.7827C139.012 14.4608 139.363 15.3558 139.363 16.4679C139.363 18.0139 139.08 19.343 138.512 20.455C137.971 21.5671 137.389 22.6385 136.767 23.6692C136.659 23.8862 136.564 24.0625 136.483 24.1981C136.402 24.3337 136.483 24.4015 136.727 24.4015C137.511 24.4015 138.282 24.076 139.039 23.4251C139.796 22.7741 140.756 21.54 141.919 19.7227C142 19.5871 142.081 19.4786 142.163 19.3972C142.244 19.3159 142.365 19.2752 142.528 19.2752H142.609C142.906 19.2752 143.082 19.4515 143.136 19.8041C143.136 19.8855 143.109 19.9804 143.055 20.0889C142.379 21.2823 141.689 22.313 140.986 23.181C140.31 24.0489 139.499 24.7134 138.552 25.1745C137.606 25.6085 136.416 25.8391 134.982 25.8662C134.414 26.4086 133.711 26.9104 132.873 27.3715C132.061 27.8326 131.209 28.0632 130.317 28.0632ZM134.211 24.3201H134.617C135.185 23.6421 135.726 22.869 136.24 22.0011C136.781 21.1331 137.213 20.2381 137.538 19.3159C137.863 18.3665 138.025 17.4715 138.025 16.6306C138.025 15.8441 137.822 15.1795 137.416 14.6371C137.011 14.0675 136.307 13.7827 135.307 13.7827C134.631 13.7827 133.968 13.9318 133.319 14.2302C132.697 14.5014 132.156 14.8405 131.696 15.2473L131.818 15.4101C131.872 15.383 131.953 15.3694 132.061 15.3694C132.224 15.3694 132.372 15.4372 132.508 15.5728C132.643 15.6813 132.71 15.8034 132.71 15.939C132.71 16.0204 132.697 16.0882 132.67 16.1424C132.643 16.1967 132.602 16.2509 132.548 16.3052C132.088 16.9832 131.642 17.6206 131.209 18.2174C130.777 18.8141 130.371 19.4922 129.992 20.2516C129.911 20.4415 129.817 20.6313 129.708 20.8212C129.925 21.8248 130.425 22.6656 131.209 23.3437C132.021 23.9947 133.021 24.3201 134.211 24.3201ZM130.56 26.924C131.101 26.924 131.642 26.7613 132.183 26.4358C132.724 26.0832 133.184 25.7577 133.562 25.4593C131.507 25.2423 129.992 24.3337 129.019 22.7334C128.992 22.9233 128.938 23.2081 128.857 23.5878C128.775 23.9675 128.735 24.3473 128.735 24.727C128.735 25.2695 128.857 25.7712 129.1 26.2323C129.343 26.6934 129.83 26.924 130.56 26.924Z" fill="#121315"/>
<path d="M99.3985 30.0568C98.7764 30.0568 98.0462 30.0026 97.2078 29.8941C96.3965 29.7856 95.6933 29.555 95.0984 29.2024C94.5034 28.8498 94.2059 28.3073 94.2059 27.575C94.2059 26.7613 94.4493 26.0425 94.9361 25.4187C95.4229 24.7677 96.0584 24.2117 96.8427 23.7506C97.627 23.2624 98.4384 22.8555 99.2768 22.53C100.142 22.1774 100.94 21.8926 101.67 21.6756C101.724 21.5943 101.765 21.5265 101.792 21.4722C101.819 21.3909 101.846 21.3095 101.873 21.2281C102.657 19.2752 103.685 17.3359 104.956 15.4101C106.254 13.4572 107.525 11.6128 108.769 9.87693C109.31 9.1446 109.865 8.3987 110.433 7.63925C111.001 6.87979 111.582 6.16102 112.177 5.48293C112.366 5.26594 112.556 5.07608 112.745 4.91334C112.961 4.72347 113.178 4.53361 113.394 4.34374C112.502 4.26237 111.582 4.22169 110.636 4.22169C109.689 4.22169 108.742 4.26237 107.796 4.34374C106.606 4.45224 105.429 4.60142 104.267 4.79128C103.104 4.95402 101.941 5.19813 100.778 5.52362C99.2903 5.95759 97.8569 6.58143 96.4776 7.39514C95.1254 8.18172 94.0166 9.15816 93.1511 10.3245C92.2857 11.4637 91.853 12.7927 91.853 14.3116C91.853 14.7456 91.8935 15.1931 91.9747 15.6542C92.0829 16.0882 92.2451 16.5086 92.4615 16.9155C92.6778 17.3495 92.9212 17.7021 93.1917 17.9733C93.4892 18.2174 93.8949 18.448 94.4087 18.6649C94.5439 18.7192 94.6521 18.787 94.7333 18.8684C94.8414 18.9226 94.8955 19.0311 94.8955 19.1938C94.8955 19.3566 94.8279 19.5058 94.6927 19.6414C94.5845 19.777 94.4358 19.8448 94.2464 19.8448C94.2194 19.8448 94.1788 19.8448 94.1247 19.8448C94.0977 19.8177 94.0707 19.8041 94.0436 19.8041C93.2052 19.5871 92.5156 19.1803 91.9747 18.5836C91.4608 17.9597 91.0822 17.2681 90.8388 16.5086C90.5954 15.722 90.4737 14.9897 90.4737 14.3116C90.4737 12.63 90.9199 11.1517 91.8124 9.87693C92.7049 8.57501 93.8813 7.47651 95.3418 6.58143C96.8292 5.65923 98.4113 4.95402 100.088 4.4658C101.332 4.08607 102.59 3.81484 103.861 3.6521C105.132 3.46223 106.417 3.31305 107.715 3.20456C108.175 3.15031 108.634 3.12319 109.094 3.12319C109.581 3.12319 110.054 3.12319 110.514 3.12319C111.19 3.12319 111.853 3.13675 112.502 3.16387C113.178 3.191 113.854 3.23168 114.53 3.28593C114.665 3.17743 114.787 3.0825 114.895 3.00113C115.003 2.89264 115.111 2.78414 115.22 2.67565C115.301 2.54003 115.382 2.4451 115.463 2.39085C115.544 2.30948 115.679 2.2688 115.869 2.2688C116.274 2.2688 116.477 2.4451 116.477 2.7977C116.477 3.01469 116.396 3.23168 116.234 3.44867C117.586 3.63853 118.898 3.93689 120.169 4.34374C121.44 4.7506 122.589 5.29307 123.617 5.97115C124.672 6.62212 125.497 7.44938 126.092 8.45295C126.714 9.4294 127.025 10.5957 127.025 11.9519C127.025 13.5793 126.633 15.1525 125.848 16.6714C125.064 18.1632 124.009 19.56 122.684 20.8619C121.359 22.1639 119.871 23.3437 118.222 24.4016C116.572 25.4594 114.868 26.368 113.11 27.1275C111.352 27.8869 109.648 28.4701 107.999 28.8769C106.619 29.2295 105.2 29.5143 103.739 29.7313C102.279 29.9483 100.832 30.0568 99.3985 30.0568ZM98.9928 28.9583C100.426 28.9583 101.887 28.8362 103.374 28.5921C104.862 28.3751 106.295 28.0904 107.674 27.7377C109.189 27.358 110.771 26.8155 112.421 26.1103C114.07 25.4051 115.679 24.5643 117.248 23.5879C118.844 22.5843 120.264 21.4722 121.508 20.2517C122.779 19.0311 123.793 17.7292 124.55 16.3459C125.307 14.9355 125.686 13.4708 125.686 11.9519C125.686 10.65 125.361 9.55145 124.712 8.65638C124.09 7.7613 123.252 7.02897 122.197 6.45938C121.142 5.88978 119.98 5.45581 118.708 5.15745C117.464 4.83197 116.22 4.60142 114.976 4.4658C114.679 4.73703 114.381 5.02183 114.084 5.32019C113.813 5.61855 113.543 5.91691 113.272 6.21527C112.515 7.11034 111.65 8.20884 110.676 9.51077C109.703 10.7856 108.729 12.1417 107.755 13.5793C106.782 15.0168 105.889 16.4137 105.078 17.7699C104.294 19.126 103.699 20.3059 103.293 21.3095C104.348 21.1196 105.416 20.9704 106.498 20.8619C107.58 20.7263 108.661 20.6585 109.743 20.6585C110.446 20.6585 111.204 20.7399 112.015 20.9026C112.826 21.0382 113.462 21.3637 113.922 21.8791C113.976 21.9333 114.016 21.9876 114.043 22.0418C114.07 22.0961 114.084 22.1639 114.084 22.2452C114.084 22.408 114.003 22.5436 113.84 22.6521C113.705 22.7606 113.556 22.8148 113.394 22.8148C113.178 22.8148 112.988 22.7335 112.826 22.5707C112.448 22.2181 111.974 22.0147 111.406 21.9604C110.865 21.8791 110.325 21.8384 109.784 21.8384C108.621 21.8384 107.444 21.9198 106.254 22.0825C105.091 22.2181 103.942 22.408 102.806 22.6521C102.725 22.9505 102.644 23.2624 102.563 23.5879C102.509 23.8862 102.482 24.1846 102.482 24.4829C102.482 25.1068 102.59 25.5272 102.806 25.7442C103.022 25.934 103.239 26.0561 103.455 26.1103C103.672 26.1646 103.78 26.3273 103.78 26.5986C103.78 26.7342 103.712 26.8698 103.577 27.0054C103.469 27.1139 103.333 27.1682 103.171 27.1682C103.036 27.1682 102.941 27.1546 102.887 27.1275C102.373 26.9105 101.995 26.5714 101.751 26.1103C101.535 25.6492 101.4 25.1475 101.346 24.605C101.319 24.0354 101.319 23.5472 101.346 23.1403C100.643 23.3573 99.8312 23.6692 98.9117 24.0761C98.0192 24.4558 97.2349 24.944 96.5588 25.5407C95.9097 26.1103 95.5852 26.802 95.5852 27.6157C95.5852 28.0225 95.8015 28.3209 96.2342 28.5108C96.667 28.7006 97.1538 28.8227 97.6947 28.8769C98.2356 28.9312 98.6683 28.9583 98.9928 28.9583Z" fill="#121315"/>
<path d="M65.98 27.2495C65.8448 27.2495 65.696 27.2088 65.5338 27.1274C65.3715 27.0461 65.2904 26.9376 65.2904 26.8019C65.2904 26.585 65.3309 26.3951 65.4121 26.2323C65.7095 25.5814 66.0882 24.7812 66.5479 23.8319C67.0347 22.8826 67.508 21.9062 67.9678 20.9026C68.4546 19.8719 68.8603 18.909 69.1848 18.0139C69.5364 17.1189 69.7122 16.4001 69.7122 15.8576C69.7122 15.6949 69.6716 15.5457 69.5905 15.4101C69.5364 15.2473 69.4012 15.166 69.1848 15.166C68.8603 15.166 68.5357 15.3016 68.2112 15.5728C67.9137 15.8441 67.6432 16.156 67.3998 16.5086C67.1564 16.8341 66.9536 17.1053 66.7913 17.3223C66.2504 18.0546 65.7907 18.7327 65.4121 19.3565C65.0334 19.9533 64.6413 20.55 64.2356 21.1467C63.857 21.7163 63.3837 22.3537 62.8158 23.0589C62.7346 23.1674 62.64 23.2623 62.5318 23.3437C62.4506 23.3979 62.3289 23.4251 62.1667 23.4251C62.0044 23.4251 61.8692 23.3437 61.761 23.181C61.6258 23.0182 61.5987 22.869 61.6799 22.7334C62.2749 21.7841 62.8563 20.889 63.4243 20.0482C63.9922 19.1802 64.4925 18.4343 64.9252 17.8105C65.358 17.1867 65.6555 16.7663 65.8177 16.5493C66.2775 15.9525 66.7508 15.383 67.2376 14.8405C67.7514 14.298 68.4411 14.0268 69.3065 14.0268C70.0367 14.0268 70.537 14.2302 70.8075 14.6371C71.105 15.0439 71.2537 15.5186 71.2537 16.061C71.2537 17.0375 70.8481 18.2987 70.0367 19.8448C71.0374 18.787 72.1056 17.8241 73.2415 16.9561C74.4044 16.0882 75.4862 15.3694 76.4869 14.7998C77.4876 14.2031 78.2448 13.8369 78.7587 13.7013C79.0021 13.6199 79.2455 13.5521 79.4889 13.4979C79.7593 13.4436 80.0027 13.4165 80.2191 13.4165C80.4895 13.4165 80.7059 13.4843 80.8681 13.6199C81.0575 13.7555 81.1521 14.0132 81.1521 14.3929C81.1521 14.7727 80.9087 15.3151 80.4219 16.0204C79.9351 16.6984 79.3401 17.485 78.6369 18.3801C77.9608 19.2481 77.3118 20.1296 76.6897 21.0246C76.0677 21.9197 75.6215 22.7605 75.351 23.5471C75.2699 23.737 75.2158 23.9269 75.1887 24.1167C75.1617 24.2795 75.1482 24.4286 75.1482 24.5643C75.1482 25.2966 75.4862 25.6628 76.1624 25.6628C76.5951 25.6628 77.136 25.4458 77.785 25.0118C78.1637 24.7677 78.5288 24.4964 78.8804 24.1981C79.259 23.8726 79.543 23.5878 79.7323 23.3437C80.1379 22.8826 80.4625 22.4893 80.7059 22.1638C80.9763 21.8383 81.2333 21.4857 81.4767 21.106C81.7471 20.6992 82.0852 20.1974 82.4908 19.6007C82.572 19.465 82.6531 19.3701 82.7342 19.3159C82.8154 19.2616 82.9506 19.2345 83.1399 19.2345C83.4374 19.2345 83.5862 19.4244 83.5862 19.8041C83.5862 19.9668 83.4644 20.2516 83.221 20.6585C82.9776 21.0382 82.6801 21.4722 82.3286 21.9604C82.004 22.4215 81.6795 22.8555 81.355 23.2623C81.0575 23.6421 80.8411 23.9133 80.7059 24.076C80.4084 24.4286 80.0298 24.7948 79.57 25.1745C79.1373 25.5543 78.691 25.8797 78.2313 26.151C77.7986 26.3951 77.3523 26.5714 76.8926 26.6799C76.4328 26.7884 75.9866 26.8426 75.5538 26.8426C74.8507 26.8426 74.3368 26.6392 74.0123 26.2323C73.7148 25.8255 73.5661 25.3915 73.5661 24.9304C73.5661 24.2252 73.7959 23.4251 74.2557 22.53C74.7425 21.6078 75.3104 20.6992 75.9595 19.8041C76.6356 18.8819 77.2577 18.0546 77.8256 17.3223C78.4206 16.5899 78.8263 16.061 79.0426 15.7356C79.0967 15.6542 79.1373 15.5864 79.1643 15.5321C79.1914 15.4508 79.2049 15.383 79.2049 15.3287C79.2049 15.1117 79.0426 15.0032 78.7181 15.0032C78.5558 15.0032 78.3665 15.0439 78.1501 15.1253C77.0413 15.5864 75.8784 16.2645 74.6614 17.1595C73.4714 18.0546 72.3626 19.0311 71.3349 20.0889C70.3342 21.1196 69.5364 22.096 68.9414 23.0182L67.3187 25.5814C67.1835 25.7984 67.0618 26.0289 66.9536 26.273C66.8454 26.49 66.7237 26.707 66.5885 26.924C66.4262 27.141 66.2234 27.2495 65.98 27.2495Z" fill="#121315"/>
<path d="M57.1316 27.4123C56.4555 27.4123 55.8605 27.2224 55.3466 26.8427C54.8598 26.4629 54.6164 25.8933 54.6164 25.1339C54.6164 24.0761 54.9004 22.964 55.4683 21.7977C56.0363 20.6314 56.7259 19.5058 57.5373 18.4208C58.3486 17.3088 59.1059 16.3323 59.809 15.4915C60.2417 15.0304 60.4581 14.6371 60.4581 14.3116C60.4581 14.0675 60.3364 13.9319 60.093 13.9048C60.0119 13.8776 59.9037 13.8641 59.7685 13.8641C59.1735 13.8641 58.5785 14.0811 57.9835 14.515C57.3885 14.949 56.9017 15.3152 56.5231 15.6135C55.279 16.59 54.0755 17.7292 52.9126 19.0311C51.7497 20.333 50.7896 21.5265 50.0323 22.6114C49.7619 23.0183 49.532 23.52 49.3427 24.1168C49.1534 24.6863 48.9776 25.2288 48.8153 25.7442C48.6801 26.2595 48.5178 26.6257 48.3285 26.8427C48.0581 27.1681 47.7606 27.3309 47.436 27.3309C47.1926 27.3309 46.9898 27.2495 46.8275 27.0868C46.6653 26.8969 46.5841 26.6664 46.5841 26.3951C46.5841 26.2324 46.5976 26.1103 46.6247 26.029C46.9492 24.7542 47.3684 23.3573 47.8823 21.8384C48.4232 20.2923 48.9911 18.7734 49.5861 17.2816C50.2081 15.7627 50.8031 14.4065 51.3711 13.2131C51.7767 12.3452 52.25 11.3687 52.7909 10.2838C53.3588 9.17172 53.9944 8.07322 54.6976 6.98828C55.4278 5.87622 56.2256 4.88621 57.091 4.01826C57.9835 3.1503 58.9571 2.5129 60.0119 2.10605C60.4175 1.94331 60.8232 1.86194 61.2289 1.86194C61.7698 1.86194 62.2295 1.99756 62.6082 2.26879C63.0138 2.54003 63.2167 2.98756 63.2167 3.6114C63.2167 4.20812 63.0003 4.89977 62.5676 5.68635C62.1349 6.44581 61.594 7.21883 60.9449 8.00541C60.2958 8.79199 59.6332 9.52432 58.9571 10.2024C58.281 10.8805 57.686 11.4365 57.1722 11.8705C55.9822 12.8469 54.8463 13.7556 53.7645 14.5964C52.7098 15.4372 51.8173 16.3052 51.0871 17.2003C50.6003 18.5564 50.2622 19.6821 50.0729 20.5771C50.8302 19.5464 51.7497 18.5022 52.8315 17.4444C53.9133 16.3594 54.9274 15.4508 55.874 14.7185C56.3879 14.3116 57.0234 13.8641 57.7807 13.3759C58.5379 12.8876 59.2952 12.6435 60.0524 12.6435C60.5933 12.6435 61.026 12.7791 61.3506 13.0504C61.6751 13.3216 61.8374 13.6878 61.8374 14.1489C61.8374 14.7727 61.5264 15.4508 60.9043 16.1831C60.2823 16.9155 59.5927 17.8105 58.8354 18.8684C58.1052 19.9262 57.4696 20.9976 56.9288 22.0825C56.4149 23.1674 56.158 24.1574 56.158 25.0525C56.158 25.4865 56.2797 25.7984 56.5231 25.9883C56.7665 26.1781 57.0505 26.2731 57.375 26.2731C57.8618 26.2731 58.308 26.1103 58.7137 25.7849C59.3898 25.2695 60.0119 24.6592 60.5798 23.954C61.1748 23.2488 61.7157 22.5436 62.2025 21.8384C62.6893 21.1332 63.1085 20.5229 63.4601 20.0075C63.7305 19.5736 64.0415 19.3566 64.3931 19.3566C64.6636 19.3566 64.7988 19.5058 64.7988 19.8041C64.7988 19.8855 64.7853 19.9804 64.7582 20.0889C64.7312 20.1974 64.6771 20.3195 64.596 20.4551C64.2173 21.1332 63.717 21.8791 63.095 22.6928C62.5 23.5065 61.8915 24.2795 61.2694 25.0118C60.6474 25.717 60.0795 26.2459 59.5656 26.5986C58.8625 27.141 58.0511 27.4123 57.1316 27.4123ZM60.5392 3.04181C59.7008 3.36729 58.876 3.93689 58.0646 4.75059C57.2803 5.56429 56.5096 6.54074 55.7523 7.67993C55.0221 8.81911 54.3325 10.0261 53.6834 11.3009C53.0343 12.5486 52.4528 13.7827 51.939 15.0033C52.8315 14.1896 53.6293 13.4979 54.3325 12.9283C55.0627 12.3587 55.7794 11.762 56.4825 11.1382C57.1045 10.5957 57.7671 9.93117 58.4703 9.14459C59.2005 8.33089 59.8631 7.49006 60.4581 6.62211C61.0801 5.75416 61.5128 4.95402 61.7562 4.22168C61.8103 4.08607 61.8509 3.96401 61.8779 3.85552C61.905 3.7199 61.9185 3.6114 61.9185 3.53003C61.9185 3.09606 61.7022 2.87907 61.2694 2.87907C61.1613 2.87907 61.0396 2.89263 60.9043 2.91976C60.7962 2.94688 60.6745 2.98756 60.5392 3.04181Z" fill="#121315"/>
<path d="M37.0997 28.0632C36.3694 28.0632 35.788 27.8733 35.3553 27.4936C34.9226 27.1139 34.598 26.6528 34.3817 26.1103C34.1923 25.5407 34.0977 25.0118 34.0977 24.5236C34.0977 23.8726 34.2194 23.1538 34.4628 22.3673C34.7062 21.5535 34.9226 20.9975 35.1119 20.6992C35.1119 20.6178 35.0983 20.5364 35.0713 20.455C35.0713 20.3466 35.0713 20.2516 35.0713 20.1702C35.0713 19.4379 35.1795 18.6785 35.3958 17.8919C35.6392 16.9697 36.072 16.1289 36.694 15.3694C37.316 14.5828 38.0868 13.9454 39.0063 13.4572C39.9529 12.969 40.9806 12.7249 42.0894 12.7249C43.3876 12.7249 44.3882 13.0775 45.0914 13.7827C45.7946 14.4608 46.1461 15.3558 46.1461 16.4679C46.1461 18.0139 45.8622 19.343 45.2942 20.455C44.7533 21.5671 44.1719 22.6385 43.5498 23.6692C43.4417 23.8862 43.347 24.0625 43.2659 24.1981C43.1847 24.3337 43.2659 24.4015 43.5093 24.4015C44.2936 24.4015 45.0644 24.076 45.8216 23.4251C46.5789 22.7741 47.5389 21.54 48.7019 19.7227C48.783 19.5871 48.8641 19.4786 48.9453 19.3972C49.0264 19.3159 49.1481 19.2752 49.3104 19.2752H49.3915C49.689 19.2752 49.8648 19.4515 49.9189 19.8041C49.9189 19.8855 49.8918 19.9804 49.8378 20.0889C49.1616 21.2823 48.472 22.313 47.7688 23.181C47.0927 24.0489 46.2814 24.7134 45.3348 25.1745C44.3882 25.6085 43.1983 25.8391 41.7649 25.8662C41.1969 26.4086 40.4938 26.9104 39.6554 27.3715C38.844 27.8326 37.9921 28.0632 37.0997 28.0632ZM40.9941 24.3201H41.3998C41.9677 23.6421 42.5086 22.869 43.0225 22.0011C43.5634 21.1331 43.9961 20.2381 44.3206 19.3159C44.6452 18.3665 44.8074 17.4715 44.8074 16.6306C44.8074 15.8441 44.6046 15.1795 44.1989 14.6371C43.7932 14.0675 43.0901 13.7827 42.0894 13.7827C41.4133 13.7827 40.7507 13.9318 40.1016 14.2302C39.4796 14.5014 38.9387 14.8405 38.4789 15.2473L38.6006 15.4101C38.6547 15.383 38.7359 15.3694 38.844 15.3694C39.0063 15.3694 39.1551 15.4372 39.2903 15.5728C39.4255 15.6813 39.4931 15.8034 39.4931 15.939C39.4931 16.0204 39.4796 16.0882 39.4526 16.1424C39.4255 16.1967 39.3849 16.2509 39.3309 16.3052C38.8711 16.9832 38.4249 17.6206 37.9921 18.2174C37.5594 18.8141 37.1537 19.4922 36.7751 20.2516C36.694 20.4415 36.5993 20.6313 36.4912 20.8212C36.7075 21.8248 37.2078 22.6656 37.9921 23.3437C38.8035 23.9947 39.8041 24.3201 40.9941 24.3201ZM37.3431 26.924C37.884 26.924 38.4249 26.7613 38.9657 26.4358C39.5066 26.0832 39.9664 25.7577 40.345 25.4593C38.2896 25.2423 36.7751 24.3337 35.8015 22.7334C35.7745 22.9233 35.7204 23.2081 35.6392 23.5878C35.5581 23.9675 35.5175 24.3473 35.5175 24.727C35.5175 25.2695 35.6392 25.7712 35.8826 26.2323C36.126 26.6934 36.6129 26.924 37.3431 26.924Z" fill="#121315"/>
<path d="M5.80111 38.5601C5.04385 38.5601 4.21899 38.4516 3.32651 38.2346C2.40699 38.0447 1.62269 37.7057 0.973612 37.2174C0.324538 36.7292 0 36.0647 0 35.2239V34.9391C0.0811341 34.4508 0.270448 33.9762 0.567941 33.5151C0.865433 33.054 1.18997 32.6336 1.54155 32.2538C2.70448 31.0062 4.11081 29.989 5.76054 29.2025C7.43732 28.443 9.19523 27.8463 11.0343 27.4123C12.9004 26.9783 14.6988 26.6664 16.4297 26.4765C17.5385 26.3409 18.6474 26.2596 19.7562 26.2324C20.8651 26.1782 21.9604 26.1511 23.0422 26.1511H24.2997C26.274 23.493 27.9373 20.6314 29.2895 17.5665C30.6688 14.4744 31.7912 11.4095 32.6566 8.37162C32.9541 7.34093 33.184 6.3238 33.3462 5.32023C33.5355 4.31666 33.6302 3.40803 33.6302 2.59432V2.26884C33.6302 2.1061 33.5896 1.98404 33.5085 1.90267C33.4544 1.79418 33.2786 1.73993 32.9811 1.73993C32.3861 1.73993 31.6965 1.88911 30.9122 2.18747C30.1549 2.4587 29.4112 2.79775 28.681 3.2046C27.9508 3.58433 27.3558 3.92337 26.896 4.22173C26.0847 4.73708 25.2463 5.42872 24.3809 6.29668C23.5154 7.1375 22.7852 8.04614 22.1903 9.02259C21.5953 9.99903 21.2978 10.9484 21.2978 11.8706C21.2978 12.3045 21.406 12.7656 21.6223 13.2538C21.8387 13.7421 22.2579 13.9862 22.8799 13.9862C23.2856 13.9862 23.6777 13.9184 24.0563 13.7828C24.462 13.62 24.8001 13.5386 25.0705 13.5386C25.2869 13.5386 25.4491 13.6065 25.5573 13.7421C25.6655 13.8777 25.7196 14.0269 25.7196 14.1896C25.7196 14.4337 25.5303 14.6236 25.1517 14.7592C24.773 14.8948 24.3538 14.9898 23.8941 15.044C23.4614 15.0982 23.1368 15.1254 22.9205 15.1254C21.8387 15.1254 21.0814 14.827 20.6487 14.2303C20.216 13.6065 19.9996 12.8741 19.9996 12.0333C19.9996 10.9484 20.2971 9.83629 20.8921 8.6971C21.4871 7.53079 22.2579 6.45942 23.2044 5.48297C24.178 4.50653 25.1787 3.74707 26.2064 3.2046C26.7473 2.90624 27.4505 2.55364 28.3159 2.14678C29.1813 1.71281 30.0603 1.34664 30.9528 1.04828C31.8723 0.7228 32.6566 0.560059 33.3057 0.560059C34.0088 0.560059 34.4551 0.736361 34.6444 1.08897C34.8607 1.44157 34.9689 1.87555 34.9689 2.39089C34.9689 3.15035 34.8878 3.99118 34.7255 4.91338C34.5903 5.80845 34.401 6.73065 34.1576 7.67997C33.3733 10.8263 32.2915 14.0269 30.9122 17.2817C29.56 20.5094 27.9237 23.493 26.0036 26.2324C26.7067 26.2867 27.5451 26.4223 28.5187 26.6393C29.4923 26.8292 30.4254 27.0868 31.3179 27.4123C32.2374 27.7378 32.9541 28.1175 33.4679 28.5515C33.6302 28.7142 33.7113 28.8634 33.7113 28.999C33.7113 29.1346 33.6437 29.2567 33.5085 29.3652C33.4003 29.5008 33.2651 29.5686 33.1028 29.5686C33.0217 29.5686 32.9406 29.5415 32.8594 29.4873C32.8053 29.4601 32.7377 29.433 32.6566 29.4059C32.278 29.1618 31.8858 28.9448 31.4801 28.7549C31.1015 28.5922 30.6823 28.443 30.2226 28.3074C29.4383 28.0361 28.5999 27.8327 27.7074 27.6971C26.8149 27.5615 25.936 27.4666 25.0705 27.4123C24.8001 27.7649 24.5161 28.104 24.2186 28.4294C23.9482 28.7549 23.6642 29.0804 23.3667 29.4059C21.717 31.196 19.8374 32.7963 17.7279 34.2067C15.6184 35.6172 13.3196 36.7428 10.8314 37.5836C10.1553 37.8006 9.45215 37.9905 8.72194 38.1532C7.99174 38.3431 7.26153 38.4651 6.53132 38.5194C6.42314 38.5194 6.30144 38.5194 6.16621 38.5194C6.05803 38.5465 5.93633 38.5601 5.80111 38.5601ZM5.5577 37.3802C5.69293 37.3802 5.84167 37.3802 6.00394 37.3802C6.16621 37.3802 6.31496 37.3666 6.45018 37.3395C7.15335 37.2853 7.84299 37.1632 8.51911 36.9733C9.19523 36.8106 9.85783 36.6207 10.5069 36.4037C12.8057 35.6172 14.9558 34.5458 16.9571 33.1896C18.9854 31.8606 20.7704 30.3688 22.312 28.7142C22.5283 28.4972 22.7311 28.2667 22.9205 28.0226C23.1098 27.7785 23.3126 27.5615 23.529 27.3716C23.2585 27.3445 22.9881 27.3309 22.7176 27.3309C22.4472 27.3309 22.1632 27.3309 21.8657 27.3309C21.0003 27.3309 20.1213 27.3581 19.2288 27.4123C18.3634 27.4666 17.498 27.5479 16.6325 27.6564C15.0639 27.8192 13.4142 28.0904 11.6833 28.4701C9.97953 28.877 8.34332 29.4194 6.77472 30.0975C5.23317 30.7756 3.90797 31.6571 2.79914 32.7421C2.4746 33.0676 2.16358 33.4202 1.86609 33.7999C1.5686 34.2067 1.37928 34.6407 1.29815 35.1018V35.3459C1.29815 35.9155 1.55508 36.3359 2.06893 36.6072C2.58278 36.9055 3.17776 37.109 3.85388 37.2174C4.50296 37.3259 5.0709 37.3802 5.5577 37.3802Z" fill="#121315"/>
</svg>
