<svg width="57" height="39" viewBox="0 0 57 39" fill="none" xmlns="http://www.w3.org/2000/svg">
<path d="M1.88257 38.2219C1.18532 38.2219 0.662385 38.0476 0.313761 37.699C-0.0348624 37.2342 -0.0929664 36.595 0.13945 35.7816L12.5156 1.96504C12.8642 0.802962 13.6196 0.221924 14.7817 0.221924H26.1119C27.7388 0.221924 28.378 0.977275 28.0294 2.48798L19.6624 36.4788C19.3138 37.6409 18.5003 38.2219 17.222 38.2219H1.88257ZM29.9468 38.2219C29.2495 38.2219 28.7266 38.0476 28.378 37.699C28.0294 37.2342 27.9713 36.595 28.2037 35.7816L40.5798 1.96504C40.9284 0.802962 41.6838 0.221924 42.8459 0.221924H54.1761C55.8031 0.221924 56.4422 0.977275 56.0936 2.48798L47.7266 36.4788C47.378 37.6409 46.5645 38.2219 45.2862 38.2219H29.9468Z" fill="#FFCA3B"/>
</svg>
